<?xml version="1.0" encoding="UTF-8" standalone="no"?>
<svg
   xmlns:dc="http://purl.org/dc/elements/1.1/"
   xmlns:cc="http://creativecommons.org/ns#"
   xmlns:rdf="http://www.w3.org/1999/02/22-rdf-syntax-ns#"
   xmlns:svg="http://www.w3.org/2000/svg"
   xmlns="http://www.w3.org/2000/svg"
   xmlns:sodipodi="http://sodipodi.sourceforge.net/DTD/sodipodi-0.dtd"
   xmlns:inkscape="http://www.inkscape.org/namespaces/inkscape"
   width="742.36719"
   height="601.17188"
   viewBox="0 0 742.36719 601.17187"
   version="1.1"
   id="svg88"
   sodipodi:docname="main.svg"
   inkscape:version="0.92.3 (2405546, 2018-03-11)">
  <metadata
     id="metadata92">
    <rdf:RDF>
      <cc:Work
         rdf:about="">
        <dc:format>image/svg+xml</dc:format>
        <dc:type
           rdf:resource="http://purl.org/dc/dcmitype/StillImage" />
        <dc:title></dc:title>
      </cc:Work>
    </rdf:RDF>
  </metadata>
  <sodipodi:namedview
     pagecolor="#ffffff"
     bordercolor="#666666"
     borderopacity="1"
     objecttolerance="10"
     gridtolerance="10"
     guidetolerance="10"
     inkscape:pageopacity="0"
     inkscape:pageshadow="2"
     inkscape:window-width="1920"
     inkscape:window-height="1017"
     id="namedview90"
     showgrid="false"
     inkscape:zoom="1.221902"
     inkscape:cx="277.98897"
     inkscape:cy="332.46484"
     inkscape:window-x="-8"
     inkscape:window-y="-8"
     inkscape:window-maximized="1"
     inkscape:current-layer="Group-2"
     fit-margin-top="0"
     fit-margin-left="0"
     fit-margin-right="0"
     fit-margin-bottom="0" />
  <!-- Generator: Sketch 49.3 (51167) - http://www.bohemiancoding.com/sketch -->
  <desc
     id="desc52">Created with Sketch.</desc>
  <defs
     id="defs57">
    <rect
       id="path-1"
       x="0"
       y="62"
       width="193"
       height="632" />
    <rect
       id="path-2"
       x="159"
       y="129"
       width="16"
       height="492"
       rx="8" />
    <rect
       id="path-3"
       x="1025"
       y="129"
       width="16"
       height="525"
       rx="8" />
  </defs>
  <g
     id="Page-1"
     style="fill:none;fill-rule:evenodd;stroke:none;stroke-width:1"
     transform="translate(-214.63281,-78.292969)">
    <g
       id="Artboard">
      <g
         id="Group-2">
        <rect
           id="Rectangle-3"
           x="259"
           y="157"
           width="697"
           height="346"
           style="fill:#d8d8d8" />
        <path
           d="m 218.04297,88.757812 6.67969,2.355469 v 3.28125 l -10.08985,-4.277344 v -2.765625 l 10.08985,-4.277343 v 3.28125 z m 15.30469,7.476563 c -1.85939,0 -3.37305,-0.570307 -4.54102,-1.710938 -1.16797,-1.14063 -1.75195,-2.660146 -1.75195,-4.558593 v -0.328125 c 0,-1.273444 0.24609,-2.412105 0.73828,-3.416016 0.49219,-1.003911 1.18945,-1.777341 2.0918,-2.320312 0.90234,-0.542972 1.93163,-0.814454 3.08789,-0.814454 1.73438,0 3.0996,0.54687 4.0957,1.640625 0.9961,1.093756 1.49414,2.644522 1.49414,4.652344 v 1.382813 h -8.07422 c 0.10938,0.828129 0.43945,1.492185 0.99024,1.992187 0.55078,0.500003 1.24804,0.75 2.09179,0.75 1.3047,0 2.32422,-0.472651 3.0586,-1.417969 l 1.66406,1.863282 c -0.50782,0.718753 -1.19531,1.279295 -2.0625,1.68164 -0.86719,0.402346 -1.82812,0.603516 -2.88281,0.603516 z m -0.38672,-10.40625 c -0.67188,0 -1.2168,0.22656 -1.63477,0.679687 -0.41797,0.453128 -0.68554,1.101559 -0.80273,1.945313 h 4.71093 v -0.269531 c -0.0156,-0.750004 -0.21874,-1.330076 -0.60937,-1.740235 -0.39063,-0.410158 -0.94531,-0.615234 -1.66406,-0.615234 z M 247.83203,96 c -0.15625,-0.304689 -0.26953,-0.683592 -0.33984,-1.136719 -0.82032,0.914067 -1.88671,1.371094 -3.19922,1.371094 -1.2422,0 -2.27148,-0.359371 -3.08789,-1.078125 -0.81641,-0.718754 -1.22461,-1.624995 -1.22461,-2.71875 0,-1.343757 0.49804,-2.374996 1.49414,-3.09375 0.9961,-0.718754 2.43554,-1.082031 4.31836,-1.089844 h 1.55859 v -0.726562 c 0,-0.585941 -0.15039,-1.054686 -0.45117,-1.40625 -0.30078,-0.351564 -0.77539,-0.527344 -1.42383,-0.527344 -0.57031,0 -1.01757,0.136717 -1.34179,0.410156 -0.32423,0.273439 -0.48633,0.648435 -0.48633,1.125 h -3.38672 c 0,-0.734378 0.22656,-1.414059 0.67969,-2.039062 0.45312,-0.625003 1.09374,-1.115233 1.92187,-1.470703 0.82813,-0.355471 1.75781,-0.533204 2.78906,-0.533204 1.56251,0 2.80273,0.392575 3.72071,1.177735 0.91797,0.78516 1.37695,1.888665 1.37695,3.310547 v 5.496093 c 0.008,1.203131 0.17578,2.113279 0.50391,2.730469 V 96 Z m -2.80078,-2.355469 c 0.5,0 0.96093,-0.111327 1.38281,-0.333984 0.42188,-0.222657 0.73438,-0.521483 0.9375,-0.896485 v -2.179687 h -1.26562 c -1.69532,0 -2.59766,0.585932 -2.70703,1.757812 l -0.0117,0.199219 c 0,0.421877 0.14843,0.76953 0.44531,1.042969 0.29688,0.273439 0.70312,0.410156 1.21875,0.410156 z m 14.90625,-3.585937 h -6.59766 v -2.730469 h 6.59766 z m 5.89453,-6.738282 0.10547,1.417969 c 0.89844,-1.101568 2.11327,-1.652344 3.64453,-1.652344 1.63282,0 2.7539,0.644525 3.36328,1.933594 0.89063,-1.289069 2.16015,-1.933594 3.8086,-1.933594 1.375,0 2.39843,0.400387 3.07031,1.201172 0.67188,0.800786 1.00781,2.005852 1.00781,3.615235 V 96 h -3.39844 v -8.085938 c 0,-0.718753 -0.14062,-1.244139 -0.42187,-1.576171 -0.28125,-0.332033 -0.77734,-0.498047 -1.48828,-0.498047 -1.01563,0 -1.71875,0.48437 -2.10938,1.453125 L 273.42578,96 h -3.38672 v -8.074219 c 0,-0.734378 -0.14453,-1.265623 -0.43359,-1.59375 -0.28907,-0.328126 -0.78125,-0.492187 -1.47656,-0.492187 -0.96095,0 -1.65625,0.398433 -2.08594,1.195312 V 96 h -3.38672 V 83.320312 Z M 290.78125,96 c -0.15625,-0.304689 -0.26953,-0.683592 -0.33984,-1.136719 -0.82032,0.914067 -1.88672,1.371094 -3.19922,1.371094 -1.2422,0 -2.27148,-0.359371 -3.08789,-1.078125 -0.81641,-0.718754 -1.22461,-1.624995 -1.22461,-2.71875 0,-1.343757 0.49804,-2.374996 1.49414,-3.09375 0.9961,-0.718754 2.43554,-1.082031 4.31836,-1.089844 h 1.55859 v -0.726562 c 0,-0.585941 -0.15039,-1.054686 -0.45117,-1.40625 -0.30078,-0.351564 -0.77539,-0.527344 -1.42383,-0.527344 -0.57031,0 -1.01758,0.136717 -1.3418,0.410156 -0.32422,0.273439 -0.48632,0.648435 -0.48632,1.125 h -3.38672 c 0,-0.734378 0.22656,-1.414059 0.67968,-2.039062 0.45313,-0.625003 1.09375,-1.115233 1.92188,-1.470703 0.82813,-0.355471 1.75781,-0.533204 2.78906,-0.533204 1.56251,0 2.80273,0.392575 3.72071,1.177735 0.91797,0.78516 1.37695,1.888665 1.37695,3.310547 v 5.496093 c 0.008,1.203131 0.17578,2.113279 0.5039,2.730469 V 96 Z m -2.80078,-2.355469 c 0.5,0 0.96093,-0.111327 1.38281,-0.333984 0.42188,-0.222657 0.73437,-0.521483 0.9375,-0.896485 v -2.179687 h -1.26562 c -1.69533,0 -2.59766,0.585932 -2.70704,1.757812 l -0.0117,0.199219 c 0,0.421877 0.14843,0.76953 0.44531,1.042969 0.29688,0.273439 0.70312,0.410156 1.21875,0.410156 z M 299.875,96 h -3.39844 V 83.320312 h 3.39844 z m -3.59766,-15.960938 c 0,-0.507814 0.16992,-0.925779 0.50977,-1.253906 0.33984,-0.328126 0.80273,-0.492187 1.38867,-0.492187 0.57813,0 1.03906,0.164061 1.38281,0.492187 0.34376,0.328127 0.51563,0.746092 0.51563,1.253906 0,0.515628 -0.17383,0.937499 -0.52149,1.265625 -0.34765,0.328127 -0.80663,0.492188 -1.37695,0.492188 -0.57031,0 -1.02929,-0.164061 -1.37695,-0.492188 -0.34766,-0.328126 -0.52149,-0.749997 -0.52149,-1.265625 z m 9.50391,3.28125 0.10547,1.464844 c 0.90625,-1.132818 2.12109,-1.699219 3.64453,-1.699219 1.34376,0 2.34375,0.394528 3,1.183594 0.65625,0.789067 0.99219,1.968742 1.00781,3.539063 V 96 h -3.38672 v -8.109375 c 0,-0.718754 -0.15624,-1.240233 -0.46875,-1.564453 -0.3125,-0.32422 -0.83202,-0.486328 -1.55859,-0.486328 -0.95313,0 -1.66797,0.406246 -2.14453,1.21875 V 96 h -3.38672 V 83.320312 Z m 17.23828,5.402344 -6.80859,-2.378906 v -3.257813 l 10.20703,4.277344 v 2.753906 l -10.20703,4.289063 v -3.269531 z"
           id="&lt;ea-main&gt;"
           inkscape:connector-curvature="0"
           style="fill:#4b4b4b" />
        <path
           d="m 221.04297,670.75781 6.67969,2.35547 v 3.28125 l -10.08985,-4.27734 v -2.76563 l 10.08985,-4.27734 v 3.28125 z m 10.53515,8.70703 h -2.51953 l 6.28125,-18.52734 h 2.51953 z m 13.73438,-1.23047 c -1.85938,0 -3.37304,-0.5703 -4.54102,-1.71093 -1.16797,-1.14063 -1.75195,-2.66015 -1.75195,-4.5586 v -0.32812 c 0,-1.27344 0.24609,-2.41211 0.73828,-3.41602 0.49219,-1.00391 1.18945,-1.77734 2.0918,-2.32031 0.90235,-0.54297 1.93163,-0.81445 3.08789,-0.81445 1.73438,0 3.0996,0.54687 4.0957,1.64062 0.9961,1.09376 1.49414,2.64452 1.49414,4.65235 v 1.38281 h -8.07422 c 0.10938,0.82813 0.43945,1.49218 0.99024,1.99219 0.55078,0.5 1.24804,0.75 2.0918,0.75 1.30469,0 2.32421,-0.47266 3.05859,-1.41797 l 1.66406,1.86328 c -0.50781,0.71875 -1.19531,1.27929 -2.0625,1.68164 -0.86719,0.40234 -1.82812,0.60351 -2.88281,0.60351 z m -0.38672,-10.40625 c -0.67188,0 -1.21679,0.22656 -1.63476,0.67969 -0.41798,0.45313 -0.68555,1.10156 -0.80274,1.94531 h 4.71094 v -0.26953 c -0.0156,-0.75 -0.21875,-1.33007 -0.60938,-1.74023 -0.39062,-0.41016 -0.94531,-0.61524 -1.66406,-0.61524 z M 259.79687,678 c -0.15625,-0.30469 -0.26953,-0.68359 -0.33984,-1.13672 -0.82032,0.91407 -1.88671,1.37109 -3.19922,1.37109 -1.24219,0 -2.27148,-0.35937 -3.08789,-1.07812 -0.81641,-0.71875 -1.22461,-1.625 -1.22461,-2.71875 0,-1.34376 0.49804,-2.375 1.49414,-3.09375 0.9961,-0.71875 2.43554,-1.08203 4.31836,-1.08984 h 1.5586 v -0.72657 c 0,-0.58594 -0.15039,-1.05468 -0.45118,-1.40625 -0.30078,-0.35156 -0.77538,-0.52734 -1.42382,-0.52734 -0.57032,0 -1.01758,0.13672 -1.3418,0.41016 -0.32422,0.27343 -0.48633,0.64843 -0.48633,1.125 h -3.38672 c 0,-0.73438 0.22656,-1.41406 0.67969,-2.03907 0.45313,-0.625 1.09375,-1.11523 1.92187,-1.4707 0.82813,-0.35547 1.75781,-0.5332 2.78907,-0.5332 1.5625,0 2.80273,0.39257 3.7207,1.17773 0.91797,0.78516 1.37695,1.88867 1.37695,3.31055 v 5.49609 c 0.008,1.20313 0.17578,2.11328 0.50391,2.73047 V 678 Z m -2.80078,-2.35547 c 0.50001,0 0.96094,-0.11133 1.38282,-0.33398 0.42187,-0.22266 0.73437,-0.52149 0.9375,-0.89649 v -2.17969 h -1.26563 c -1.69532,0 -2.59765,0.58594 -2.70703,1.75782 l -0.0117,0.19922 c 0,0.42187 0.14844,0.76953 0.44531,1.04296 0.29688,0.27344 0.70313,0.41016 1.21875,0.41016 z m 14.90625,-3.58594 h -6.59765 v -2.73047 h 6.59765 z m 5.89453,-6.73828 0.10547,1.41797 c 0.89845,-1.10157 2.11328,-1.65234 3.64453,-1.65234 1.63283,0 2.75391,0.64452 3.36329,1.93359 0.89063,-1.28907 2.16014,-1.93359 3.80859,-1.93359 1.37501,0 2.39843,0.40038 3.07031,1.20117 0.67188,0.80078 1.00781,2.00585 1.00781,3.61523 V 678 h -3.39843 v -8.08594 c 0,-0.71875 -0.14063,-1.24414 -0.42188,-1.57617 -0.28125,-0.33203 -0.77734,-0.49805 -1.48828,-0.49805 -1.01563,0 -1.71875,0.48437 -2.10937,1.45313 L 285.39062,678 h -3.38671 v -8.07422 c 0,-0.73438 -0.14453,-1.26562 -0.4336,-1.59375 -0.28906,-0.32812 -0.78124,-0.49219 -1.47656,-0.49219 -0.96094,0 -1.65625,0.39844 -2.08594,1.19532 V 678 h -3.38672 V 665.32031 Z M 302.74609,678 c -0.15625,-0.30469 -0.26953,-0.68359 -0.33984,-1.13672 -0.82032,0.91407 -1.88671,1.37109 -3.19922,1.37109 -1.24219,0 -2.27148,-0.35937 -3.08789,-1.07812 -0.81641,-0.71875 -1.22461,-1.625 -1.22461,-2.71875 0,-1.34376 0.49804,-2.375 1.49414,-3.09375 0.9961,-0.71875 2.43554,-1.08203 4.31836,-1.08984 h 1.55859 v -0.72657 c 0,-0.58594 -0.15038,-1.05468 -0.45117,-1.40625 -0.30078,-0.35156 -0.77538,-0.52734 -1.42383,-0.52734 -0.57031,0 -1.01757,0.13672 -1.34179,0.41016 -0.32422,0.27343 -0.48633,0.64843 -0.48633,1.125 h -3.38672 c 0,-0.73438 0.22656,-1.41406 0.67969,-2.03907 0.45313,-0.625 1.09374,-1.11523 1.92187,-1.4707 0.82813,-0.35547 1.75781,-0.5332 2.78907,-0.5332 1.5625,0 2.80273,0.39257 3.7207,1.17773 0.91797,0.78516 1.37695,1.88867 1.37695,3.31055 v 5.49609 c 0.008,1.20313 0.17578,2.11328 0.50391,2.73047 V 678 Z m -2.80078,-2.35547 c 0.5,0 0.96094,-0.11133 1.38281,-0.33398 0.42188,-0.22266 0.73438,-0.52149 0.9375,-0.89649 v -2.17969 H 301 c -1.69532,0 -2.59766,0.58594 -2.70703,1.75782 l -0.0117,0.19922 c 0,0.42187 0.14844,0.76953 0.44531,1.04296 0.29688,0.27344 0.70312,0.41016 1.21875,0.41016 z M 311.83984,678 h -3.39843 v -12.67969 h 3.39843 z m -3.59765,-15.96094 c 0,-0.50781 0.16992,-0.92578 0.50976,-1.2539 0.33985,-0.32813 0.80273,-0.49219 1.38867,-0.49219 0.57813,0 1.03907,0.16406 1.38282,0.49219 0.34375,0.32812 0.51562,0.74609 0.51562,1.2539 0,0.51563 -0.17382,0.9375 -0.52148,1.26563 -0.34766,0.32812 -0.80664,0.49218 -1.37696,0.49218 -0.57031,0 -1.02929,-0.16406 -1.37695,-0.49218 -0.34766,-0.32813 -0.52148,-0.75 -0.52148,-1.26563 z m 9.5039,3.28125 0.10547,1.46485 c 0.90626,-1.13282 2.12109,-1.69922 3.64453,-1.69922 1.34376,0 2.34375,0.39452 3,1.18359 0.65626,0.78907 0.99219,1.96874 1.00782,3.53906 V 678 h -3.38672 v -8.10938 c 0,-0.71875 -0.15625,-1.24023 -0.46875,-1.56445 -0.3125,-0.32422 -0.83203,-0.48633 -1.5586,-0.48633 -0.95313,0 -1.66796,0.40625 -2.14453,1.21875 V 678 h -3.38672 v -12.67969 z m 17.23828,5.40235 -6.80859,-2.37891 v -3.25781 l 10.20703,4.27734 v 2.75391 l -10.20703,4.28906 v -3.26953 z"
           id="&lt;/ea-main&gt;"
           inkscape:connector-curvature="0"
           style="fill:#4b4b4b" />
        <path
           d="m 290.04297,190.75781 6.67969,2.35547 v 3.28125 l -10.08985,-4.27734 v -2.76563 l 10.08985,-4.27734 v 3.28125 z m 15.30469,7.47656 c -1.85939,0 -3.37305,-0.5703 -4.54102,-1.71093 -1.16797,-1.14063 -1.75195,-2.66015 -1.75195,-4.5586 v -0.32812 c 0,-1.27345 0.24609,-2.41211 0.73828,-3.41602 0.49219,-1.00391 1.18945,-1.77734 2.0918,-2.32031 0.90234,-0.54297 1.93163,-0.81445 3.08789,-0.81445 1.73438,0 3.0996,0.54687 4.0957,1.64062 0.9961,1.09376 1.49414,2.64452 1.49414,4.65235 v 1.38281 h -8.07422 c 0.10938,0.82813 0.43945,1.49218 0.99024,1.99219 0.55078,0.5 1.24804,0.75 2.09179,0.75 1.3047,0 2.32422,-0.47266 3.0586,-1.41797 l 1.66406,1.86328 c -0.50782,0.71875 -1.19531,1.27929 -2.0625,1.68164 -0.86719,0.40234 -1.82812,0.60351 -2.88281,0.60351 z m -0.38672,-10.40625 c -0.67188,0 -1.2168,0.22656 -1.63477,0.67969 -0.41797,0.45313 -0.68554,1.10156 -0.80273,1.94531 h 4.71093 v -0.26953 c -0.0156,-0.75 -0.21874,-1.33007 -0.60937,-1.74023 -0.39063,-0.41016 -0.94531,-0.61524 -1.66406,-0.61524 z M 319.83203,198 c -0.15625,-0.30469 -0.26953,-0.68359 -0.33984,-1.13672 -0.82032,0.91407 -1.88671,1.37109 -3.19922,1.37109 -1.2422,0 -2.27148,-0.35937 -3.08789,-1.07812 -0.81641,-0.71875 -1.22461,-1.625 -1.22461,-2.71875 0,-1.34376 0.49804,-2.375 1.49414,-3.09375 0.9961,-0.71875 2.43554,-1.08203 4.31836,-1.08984 h 1.55859 v -0.72657 c 0,-0.58594 -0.15039,-1.05468 -0.45117,-1.40625 -0.30078,-0.35156 -0.77539,-0.52734 -1.42383,-0.52734 -0.57031,0 -1.01757,0.13672 -1.34179,0.41016 -0.32423,0.27343 -0.48633,0.64843 -0.48633,1.125 h -3.38672 c 0,-0.73438 0.22656,-1.41406 0.67969,-2.03907 0.45312,-0.625 1.09374,-1.11523 1.92187,-1.4707 0.82813,-0.35547 1.75781,-0.5332 2.78906,-0.5332 1.56251,0 2.80273,0.39257 3.72071,1.17773 0.91797,0.78516 1.37695,1.88867 1.37695,3.31055 v 5.49609 c 0.008,1.20313 0.17578,2.11328 0.50391,2.73047 V 198 Z m -2.80078,-2.35547 c 0.5,0 0.96093,-0.11133 1.38281,-0.33398 0.42188,-0.22266 0.73438,-0.52149 0.9375,-0.89649 v -2.17969 h -1.26562 c -1.69532,0 -2.59766,0.58594 -2.70703,1.75782 l -0.0117,0.19922 c 0,0.42187 0.14843,0.76953 0.44531,1.04296 0.29688,0.27344 0.70312,0.41016 1.21875,0.41016 z m 14.90625,-3.58594 h -6.59766 v -2.73047 h 6.59766 z m 14.14453,-0.28125 c 0,2.03126 -0.43359,3.61523 -1.30078,4.75196 -0.86719,1.13672 -2.07812,1.70507 -3.63281,1.70507 -1.37501,0 -2.47265,-0.52733 -3.29297,-1.58203 L 337.70312,198 h -3.04687 v -18 h 3.38672 v 6.45703 c 0.78125,-0.91407 1.80859,-1.37109 3.08203,-1.37109 1.54688,0 2.75976,0.56835 3.63867,1.70508 0.87891,1.13672 1.31836,2.73631 1.31836,4.79882 z m -3.38672,-0.24609 c 0,-1.28126 -0.20312,-2.21679 -0.60937,-2.80664 -0.40626,-0.58985 -1.01172,-0.88477 -1.81641,-0.88477 -1.07813,0 -1.82031,0.44141 -2.22656,1.32422 v 5.00391 c 0.41406,0.89063 1.16406,1.33594 2.25,1.33594 1.09375,0 1.8125,-0.53906 2.15625,-1.61719 0.16406,-0.51563 0.24609,-1.30078 0.24609,-2.35547 z m 4.94531,0.0117 c 0,-1.25782 0.24219,-2.3789 0.72657,-3.36328 0.48437,-0.98438 1.18163,-1.74609 2.09179,-2.28516 0.91016,-0.53906 1.96679,-0.80859 3.16993,-0.80859 1.71094,0 3.10741,0.52343 4.18945,1.57031 1.08204,1.04688 1.68555,2.46874 1.81055,4.26562 l 0.0234,0.86719 c 0,1.94532 -0.54296,3.50586 -1.6289,4.68164 -1.08594,1.17579 -2.54296,1.76367 -4.3711,1.76367 -1.82813,0 -3.2871,-0.58593 -4.37695,-1.75781 -1.08985,-1.17188 -1.63477,-2.76561 -1.63477,-4.78125 z m 3.38672,0.24609 c 0,1.20313 0.22656,2.12305 0.67969,2.75977 0.45313,0.63672 1.10156,0.95508 1.94531,0.95508 0.82032,0 1.46094,-0.31445 1.92188,-0.94336 0.46094,-0.62891 0.6914,-1.63476 0.6914,-3.01758 0,-1.1797 -0.23046,-2.09375 -0.6914,-2.74219 -0.46094,-0.64844 -1.10937,-0.97266 -1.94531,-0.97266 -0.82813,0 -1.46875,0.32227 -1.92188,0.9668 -0.45313,0.64454 -0.67969,1.64257 -0.67969,2.99414 z m 10.1836,-0.22265 c 0,-1.97658 0.44335,-3.55078 1.33008,-4.72266 0.88672,-1.17188 2.0996,-1.75781 3.63867,-1.75781 1.23438,0 2.2539,0.46093 3.05859,1.38281 V 180 h 3.39844 v 18 h -3.0586 l -0.16406,-1.34766 c -0.84375,1.0547 -1.92968,1.58203 -3.25781,1.58203 -1.49219,0 -2.68945,-0.58788 -3.5918,-1.76367 -0.90235,-1.17578 -1.35351,-2.81053 -1.35351,-4.90429 z m 3.38672,0.24609 c 0,1.18751 0.20702,2.09765 0.62109,2.73047 0.41406,0.63281 1.01562,0.94922 1.80469,0.94922 1.04688,0 1.78515,-0.4414 2.21484,-1.32422 v -5.00391 c -0.42188,-0.88281 -1.15234,-1.32422 -2.19141,-1.32422 -1.63282,0 -2.44921,1.32421 -2.44921,3.97266 z m 15.39843,1.39453 2.34375,-7.88672 h 3.63282 l -5.09766,14.64844 -0.28125,0.66797 c -0.75782,1.65626 -2.0078,2.48437 -3.75,2.48437 -0.49219,0 -0.99219,-0.0742 -1.5,-0.22265 v -2.56641 l 0.51562,0.0117 c 0.64063,0 1.11914,-0.0977 1.43555,-0.29297 0.31641,-0.19531 0.56445,-0.51953 0.74414,-0.97266 l 0.39844,-1.04296 -4.44141,-12.71485 h 3.64453 z m 14.22657,-2.48437 -6.8086,-2.37891 v -3.25781 l 10.20703,4.27734 v 2.75391 l -10.20703,4.28906 v -3.26953 z m -104.17969,280.03515 6.67969,2.35547 v 3.28125 l -10.08985,-4.27734 v -2.76563 l 10.08985,-4.27734 v 3.28125 z m 10.53515,8.70703 h -2.51953 l 6.28125,-18.52734 h 2.51953 z m 13.73438,-1.23047 c -1.85938,0 -3.37304,-0.5703 -4.54102,-1.71093 -1.16797,-1.14063 -1.75195,-2.66015 -1.75195,-4.5586 v -0.32812 c 0,-1.27345 0.24609,-2.41211 0.73828,-3.41602 0.49219,-1.00391 1.18945,-1.77734 2.0918,-2.32031 0.90235,-0.54297 1.93163,-0.81445 3.08789,-0.81445 1.73438,0 3.0996,0.54687 4.0957,1.64062 0.9961,1.09376 1.49414,2.64452 1.49414,4.65235 v 1.38281 h -8.07422 c 0.10938,0.82813 0.43946,1.49218 0.99024,1.99219 0.55078,0.5 1.24804,0.75 2.0918,0.75 1.30469,0 2.32421,-0.47266 3.05859,-1.41797 l 1.66406,1.86328 c -0.50781,0.71875 -1.19531,1.27929 -2.0625,1.68164 -0.86719,0.40234 -1.82812,0.60351 -2.88281,0.60351 z m -0.38672,-10.40625 c -0.67188,0 -1.21679,0.22656 -1.63476,0.67969 -0.41798,0.45313 -0.68555,1.10156 -0.80274,1.94531 h 4.71094 v -0.26953 c -0.0156,-0.75 -0.21875,-1.33007 -0.60938,-1.74023 -0.39062,-0.41016 -0.9453,-0.61524 -1.66406,-0.61524 z M 328.79687,478 c -0.15625,-0.30469 -0.26953,-0.68359 -0.33984,-1.13672 -0.82032,0.91407 -1.88671,1.37109 -3.19922,1.37109 -1.24219,0 -2.27148,-0.35937 -3.08789,-1.07812 -0.81641,-0.71875 -1.22461,-1.625 -1.22461,-2.71875 0,-1.34376 0.49804,-2.375 1.49414,-3.09375 0.9961,-0.71875 2.43554,-1.08203 4.31836,-1.08984 h 1.5586 v -0.72657 c 0,-0.58594 -0.15039,-1.05468 -0.45118,-1.40625 -0.30078,-0.35156 -0.77538,-0.52734 -1.42382,-0.52734 -0.57032,0 -1.01758,0.13672 -1.3418,0.41016 -0.32422,0.27344 -0.48633,0.64843 -0.48633,1.125 h -3.38672 c 0,-0.73438 0.22656,-1.41406 0.67969,-2.03907 0.45313,-0.625 1.09375,-1.11523 1.92187,-1.4707 0.82813,-0.35547 1.75781,-0.5332 2.78907,-0.5332 1.5625,0 2.80273,0.39257 3.7207,1.17773 0.91797,0.78516 1.37695,1.88867 1.37695,3.31055 v 5.49609 c 0.008,1.20313 0.17578,2.11328 0.50391,2.73047 V 478 Z m -2.80078,-2.35547 c 0.50001,0 0.96094,-0.11133 1.38282,-0.33398 0.42187,-0.22266 0.73437,-0.52149 0.9375,-0.89649 v -2.17969 h -1.26563 c -1.69532,0 -2.59765,0.58594 -2.70703,1.75782 l -0.0117,0.19922 c 0,0.42187 0.14844,0.76953 0.44531,1.04296 0.29688,0.27344 0.70313,0.41016 1.21875,0.41016 z m 14.90625,-3.58594 h -6.59765 v -2.73047 h 6.59765 z m 14.14453,-0.28125 c 0,2.03126 -0.43358,3.61523 -1.30078,4.75196 -0.86719,1.13672 -2.07811,1.70507 -3.63281,1.70507 -1.37501,0 -2.47265,-0.52733 -3.29297,-1.58203 L 346.66797,478 h -3.04688 v -18 h 3.38672 v 6.45703 c 0.78126,-0.91407 1.80859,-1.37109 3.08203,-1.37109 1.54689,0 2.75976,0.56835 3.63868,1.70508 0.87891,1.13672 1.31835,2.73631 1.31835,4.79882 z m -3.38671,-0.24609 c 0,-1.28126 -0.20313,-2.21679 -0.60938,-2.80664 -0.40625,-0.58985 -1.01171,-0.88477 -1.81641,-0.88477 -1.07812,0 -1.82031,0.44141 -2.22656,1.32422 v 5.00391 c 0.41407,0.89063 1.16406,1.33594 2.25,1.33594 1.09376,0 1.8125,-0.53906 2.15625,-1.61719 0.16407,-0.51563 0.2461,-1.30078 0.2461,-2.35547 z m 4.94531,0.0117 c 0,-1.25782 0.24218,-2.3789 0.72656,-3.36328 0.48438,-0.98438 1.18164,-1.74609 2.0918,-2.28516 0.91016,-0.53906 1.96679,-0.80859 3.16992,-0.80859 1.71095,0 3.10742,0.52343 4.18945,1.57031 1.08204,1.04688 1.68555,2.46874 1.81055,4.26562 l 0.0234,0.86719 c 0,1.94532 -0.54297,3.50586 -1.62891,4.68164 -1.08594,1.17579 -2.54296,1.76367 -4.37109,1.76367 -1.82814,0 -3.28711,-0.58593 -4.37696,-1.75781 -1.08984,-1.17188 -1.63476,-2.76561 -1.63476,-4.78125 z m 3.38672,0.24609 c 0,1.20313 0.22656,2.12305 0.67968,2.75977 0.45313,0.63672 1.10156,0.95508 1.94532,0.95508 0.82031,0 1.46093,-0.31445 1.92187,-0.94336 0.46094,-0.62891 0.69141,-1.63476 0.69141,-3.01758 0,-1.1797 -0.23047,-2.09375 -0.69141,-2.74219 -0.46094,-0.64844 -1.10937,-0.97266 -1.94531,-0.97266 -0.82813,0 -1.46875,0.32227 -1.92188,0.9668 -0.45312,0.64454 -0.67968,1.64257 -0.67968,2.99414 z m 10.18359,-0.22265 c 0,-1.97658 0.44336,-3.55078 1.33008,-4.72266 0.88672,-1.17188 2.0996,-1.75781 3.63867,-1.75781 1.23438,0 2.2539,0.46093 3.05859,1.38281 V 460 h 3.39844 v 18 h -3.05859 l -0.16406,-1.34766 c -0.84376,1.0547 -1.92968,1.58203 -3.25782,1.58203 -1.49219,0 -2.68945,-0.58788 -3.59179,-1.76367 -0.90235,-1.17578 -1.35352,-2.81053 -1.35352,-4.90429 z m 3.38672,0.24609 c 0,1.18751 0.20703,2.09765 0.62109,2.73047 0.41407,0.63281 1.01562,0.94922 1.80469,0.94922 1.04688,0 1.78515,-0.4414 2.21484,-1.32422 v -5.00391 c -0.42187,-0.88281 -1.15233,-1.32422 -2.1914,-1.32422 -1.63282,0 -2.44922,1.32421 -2.44922,3.97266 z m 15.39844,1.39453 2.34375,-7.88672 h 3.63281 l -5.09766,14.64844 -0.28125,0.66797 c -0.75781,1.65626 -2.0078,2.48437 -3.75,2.48437 -0.49219,0 -0.99218,-0.0742 -1.5,-0.22265 v -2.56641 l 0.51563,0.0117 c 0.64063,0 1.11914,-0.0976 1.43555,-0.29297 0.3164,-0.19531 0.56445,-0.51953 0.74414,-0.97266 l 0.39843,-1.04296 -4.4414,-12.71485 h 3.64453 z m 14.22656,-2.48437 -6.80859,-2.37891 v -3.25781 l 10.20703,4.27734 v 2.75391 l -10.20703,4.28906 v -3.26953 z"
           id="&lt;ea-body&gt;-&lt;/ea-body&gt;"
           inkscape:connector-curvature="0"
           style="fill:#4b4b4b" />
        <rect
           id="Rectangle-2"
           x="261"
           y="551"
           width="696"
           height="94"
           style="fill:#d8d8d8" />
        <path
           d="m 283.04297,576.75781 6.67969,2.35547 v 3.28125 l -10.08985,-4.27734 v -2.76563 l 10.08985,-4.27734 v 3.28125 z m 15.30469,7.47656 c -1.85939,0 -3.37305,-0.5703 -4.54102,-1.71093 -1.16797,-1.14063 -1.75195,-2.66015 -1.75195,-4.5586 v -0.32812 c 0,-1.27344 0.24609,-2.41211 0.73828,-3.41602 0.49219,-1.00391 1.18945,-1.77734 2.0918,-2.32031 0.90234,-0.54297 1.93163,-0.81445 3.08789,-0.81445 1.73438,0 3.0996,0.54687 4.0957,1.64062 0.9961,1.09376 1.49414,2.64452 1.49414,4.65235 v 1.38281 h -8.07422 c 0.10938,0.82813 0.43945,1.49218 0.99024,1.99219 0.55078,0.5 1.24804,0.75 2.09179,0.75 1.3047,0 2.32422,-0.47266 3.0586,-1.41797 l 1.66406,1.86328 c -0.50782,0.71875 -1.19531,1.27929 -2.0625,1.68164 -0.86719,0.40234 -1.82812,0.60351 -2.88281,0.60351 z m -0.38672,-10.40625 c -0.67188,0 -1.2168,0.22656 -1.63477,0.67969 -0.41797,0.45313 -0.68554,1.10156 -0.80273,1.94531 h 4.71093 v -0.26953 c -0.0156,-0.75 -0.21874,-1.33007 -0.60937,-1.74023 -0.39063,-0.41016 -0.94531,-0.61524 -1.66406,-0.61524 z M 312.83203,584 c -0.15625,-0.30469 -0.26953,-0.68359 -0.33984,-1.13672 -0.82032,0.91407 -1.88671,1.37109 -3.19922,1.37109 -1.2422,0 -2.27148,-0.35937 -3.08789,-1.07812 -0.81641,-0.71875 -1.22461,-1.625 -1.22461,-2.71875 0,-1.34376 0.49804,-2.375 1.49414,-3.09375 0.9961,-0.71875 2.43554,-1.08203 4.31836,-1.08984 h 1.55859 v -0.72657 c 0,-0.58594 -0.15039,-1.05468 -0.45117,-1.40625 -0.30078,-0.35156 -0.77539,-0.52734 -1.42383,-0.52734 -0.57031,0 -1.01757,0.13672 -1.34179,0.41016 -0.32423,0.27343 -0.48633,0.64843 -0.48633,1.125 h -3.38672 c 0,-0.73438 0.22656,-1.41406 0.67969,-2.03907 0.45312,-0.625 1.09374,-1.11523 1.92187,-1.4707 0.82813,-0.35547 1.75781,-0.5332 2.78906,-0.5332 1.56251,0 2.80273,0.39257 3.72071,1.17773 0.91797,0.78516 1.37695,1.88867 1.37695,3.31055 v 5.49609 c 0.008,1.20313 0.17578,2.11328 0.50391,2.73047 V 584 Z m -2.80078,-2.35547 c 0.5,0 0.96093,-0.11133 1.38281,-0.33398 0.42188,-0.22266 0.73438,-0.52149 0.9375,-0.89649 v -2.17969 h -1.26562 c -1.69532,0 -2.59766,0.58594 -2.70703,1.75782 l -0.0117,0.19922 c 0,0.42187 0.14843,0.76953 0.44531,1.04296 0.29688,0.27344 0.70312,0.41016 1.21875,0.41016 z m 14.90625,-3.58594 h -6.59766 v -2.73047 h 6.59766 z M 328.58203,584 v -10.19531 h -1.88672 v -2.48438 h 1.88672 v -1.07812 c 0,-1.42189 0.4082,-2.52539 1.22461,-3.31055 0.81641,-0.78516 1.95898,-1.17773 3.42773,-1.17773 0.46876,0 1.04297,0.0781 1.72266,0.23437 l -0.0352,2.625 c -0.28125,-0.0703 -0.62499,-0.10547 -1.03125,-0.10547 -1.27344,0 -1.91015,0.59765 -1.91015,1.79297 v 1.01953 H 334.5 v 2.48438 h -2.51953 V 584 Z m 7.14844,-6.45703 c 0,-1.25782 0.24218,-2.3789 0.72656,-3.36328 0.48438,-0.98438 1.18164,-1.74609 2.0918,-2.28516 0.91016,-0.53906 1.96679,-0.80859 3.16992,-0.80859 1.71095,0 3.10742,0.52343 4.18945,1.57031 1.08204,1.04688 1.68555,2.46874 1.81055,4.26562 l 0.0234,0.86719 c 0,1.94532 -0.54297,3.50586 -1.62891,4.68164 -1.08594,1.17579 -2.54296,1.76367 -4.37109,1.76367 -1.82814,0 -3.28711,-0.58593 -4.37696,-1.75781 -1.08984,-1.17188 -1.63476,-2.76561 -1.63476,-4.78125 z m 3.38672,0.24609 c 0,1.20313 0.22656,2.12305 0.67968,2.75977 0.45313,0.63672 1.10156,0.95508 1.94532,0.95508 0.82031,0 1.46093,-0.31445 1.92187,-0.94336 0.46094,-0.62891 0.69141,-1.63476 0.69141,-3.01758 0,-1.17969 -0.23047,-2.09375 -0.69141,-2.74219 -0.46094,-0.64844 -1.10937,-0.97266 -1.94531,-0.97266 -0.82813,0 -1.46875,0.32227 -1.92188,0.9668 -0.45312,0.64454 -0.67968,1.64257 -0.67968,2.99414 z m 10.18359,-0.24609 c 0,-1.25782 0.24219,-2.3789 0.72656,-3.36328 0.48438,-0.98438 1.18164,-1.74609 2.0918,-2.28516 0.91016,-0.53906 1.96679,-0.80859 3.16992,-0.80859 1.71095,0 3.10742,0.52343 4.18946,1.57031 1.08203,1.04688 1.68554,2.46874 1.81054,4.26562 l 0.0234,0.86719 c 0,1.94532 -0.54296,3.50586 -1.62891,4.68164 -1.08594,1.17579 -2.54296,1.76367 -4.37109,1.76367 -1.82813,0 -3.2871,-0.58593 -4.37695,-1.75781 -1.08985,-1.17188 -1.63477,-2.76561 -1.63477,-4.78125 z m 3.38672,0.24609 c 0,1.20313 0.22656,2.12305 0.67969,2.75977 0.45312,0.63672 1.10156,0.95508 1.94531,0.95508 0.82032,0 1.46093,-0.31445 1.92187,-0.94336 0.46094,-0.62891 0.69141,-1.63476 0.69141,-3.01758 0,-1.17969 -0.23047,-2.09375 -0.69141,-2.74219 -0.46094,-0.64844 -1.10937,-0.97266 -1.94531,-0.97266 -0.82813,0 -1.46875,0.32227 -1.92187,0.9668 -0.45313,0.64454 -0.67969,1.64257 -0.67969,2.99414 z m 14.76562,-9.58594 v 3.11719 h 2.16797 v 2.48438 h -2.16797 v 6.32812 c 0,0.46876 0.0899,0.80469 0.26954,1.00781 0.17969,0.20313 0.52343,0.30469 1.03125,0.30469 0.375,0 0.70703,-0.0273 0.99609,-0.082 v 2.56641 c -0.66407,0.20312 -1.34765,0.30468 -2.05078,0.30468 -2.37501,0 -3.58594,-1.1992 -3.63281,-3.59765 v -6.83203 h -1.85157 v -2.48438 h 1.85157 v -3.11719 z m 9.89063,16.03125 c -1.85938,0 -3.37304,-0.5703 -4.54102,-1.71093 -1.16797,-1.14063 -1.75195,-2.66015 -1.75195,-4.5586 v -0.32812 c 0,-1.27344 0.24609,-2.41211 0.73828,-3.41602 0.49219,-1.00391 1.18945,-1.77734 2.0918,-2.32031 0.90235,-0.54297 1.93163,-0.81445 3.08789,-0.81445 1.73438,0 3.0996,0.54687 4.0957,1.64062 0.9961,1.09376 1.49414,2.64452 1.49414,4.65235 v 1.38281 h -8.07422 c 0.10938,0.82813 0.43946,1.49218 0.99024,1.99219 0.55078,0.5 1.24804,0.75 2.0918,0.75 1.30469,0 2.32421,-0.47266 3.05859,-1.41797 l 1.66406,1.86328 c -0.50781,0.71875 -1.19531,1.27929 -2.0625,1.68164 -0.86719,0.40234 -1.82812,0.60351 -2.88281,0.60351 z m -0.38672,-10.40625 c -0.67188,0 -1.21679,0.22656 -1.63476,0.67969 -0.41798,0.45313 -0.68555,1.10156 -0.80274,1.94531 h 4.71094 v -0.26953 c -0.0156,-0.75 -0.21875,-1.33007 -0.60938,-1.74023 -0.39062,-0.41016 -0.9453,-0.61524 -1.66406,-0.61524 z m 14.64844,0.66797 c -0.46094,-0.0625 -0.86719,-0.0937 -1.21875,-0.0937 -1.28126,0 -2.12109,0.43359 -2.51953,1.30078 V 584 h -3.38672 v -12.67969 h 3.19922 l 0.0937,1.51172 c 0.67969,-1.16407 1.62108,-1.74609 2.82422,-1.74609 0.375,0 0.72656,0.0508 1.05468,0.15234 z m 8.54297,2.22657 -6.8086,-2.37891 v -3.25781 l 10.20703,4.27734 v 2.75391 l -10.20703,4.28906 v -3.26953 z m -117.10547,44.03515 6.67969,2.35547 v 3.28125 l -10.08985,-4.27734 v -2.76563 l 10.08985,-4.27734 v 3.28125 z m 10.53515,8.70703 h -2.51953 l 6.28125,-18.52734 h 2.51953 z m 13.73438,-1.23047 c -1.85938,0 -3.37304,-0.5703 -4.54102,-1.71093 -1.16797,-1.14063 -1.75195,-2.66015 -1.75195,-4.5586 v -0.32812 c 0,-1.27344 0.24609,-2.41211 0.73828,-3.41602 0.49219,-1.00391 1.18945,-1.77734 2.0918,-2.32031 0.90235,-0.54297 1.93163,-0.81445 3.08789,-0.81445 1.73438,0 3.0996,0.54687 4.0957,1.64062 0.9961,1.09376 1.49414,2.64452 1.49414,4.65235 v 1.38281 h -8.07422 c 0.10938,0.82813 0.43946,1.49218 0.99024,1.99219 0.55078,0.5 1.24804,0.75 2.0918,0.75 1.30469,0 2.32421,-0.47266 3.05859,-1.41797 l 1.66406,1.86328 c -0.50781,0.71875 -1.19531,1.27929 -2.0625,1.68164 -0.86719,0.40234 -1.82812,0.60351 -2.88281,0.60351 z m -0.38672,-10.40625 c -0.67188,0 -1.21679,0.22656 -1.63476,0.67969 -0.41798,0.45313 -0.68555,1.10156 -0.80274,1.94531 h 4.71094 v -0.26953 c -0.0156,-0.75 -0.21875,-1.33007 -0.60938,-1.74023 -0.39062,-0.41016 -0.9453,-0.61524 -1.66406,-0.61524 z M 321.79687,628 c -0.15625,-0.30469 -0.26953,-0.68359 -0.33984,-1.13672 -0.82032,0.91407 -1.88671,1.37109 -3.19922,1.37109 -1.24219,0 -2.27148,-0.35937 -3.08789,-1.07812 -0.81641,-0.71875 -1.22461,-1.625 -1.22461,-2.71875 0,-1.34376 0.49804,-2.375 1.49414,-3.09375 0.9961,-0.71875 2.43554,-1.08203 4.31836,-1.08984 h 1.5586 v -0.72657 c 0,-0.58594 -0.15039,-1.05468 -0.45118,-1.40625 -0.30078,-0.35156 -0.77538,-0.52734 -1.42382,-0.52734 -0.57032,0 -1.01758,0.13672 -1.3418,0.41016 -0.32422,0.27343 -0.48633,0.64843 -0.48633,1.125 h -3.38672 c 0,-0.73438 0.22656,-1.41406 0.67969,-2.03907 0.45313,-0.625 1.09375,-1.11523 1.92187,-1.4707 0.82813,-0.35547 1.75781,-0.5332 2.78907,-0.5332 1.5625,0 2.80273,0.39257 3.7207,1.17773 0.91797,0.78516 1.37695,1.88867 1.37695,3.31055 v 5.49609 c 0.008,1.20313 0.17578,2.11328 0.50391,2.73047 V 628 Z m -2.80078,-2.35547 c 0.50001,0 0.96094,-0.11133 1.38282,-0.33398 0.42187,-0.22266 0.73437,-0.52149 0.9375,-0.89649 v -2.17969 h -1.26563 c -1.69532,0 -2.59765,0.58594 -2.70703,1.75782 l -0.0117,0.19922 c 0,0.42187 0.14844,0.76953 0.44531,1.04296 0.29688,0.27344 0.70313,0.41016 1.21875,0.41016 z m 14.90625,-3.58594 h -6.59765 v -2.73047 h 6.59765 z M 337.54687,628 v -10.19531 h -1.88671 v -2.48438 h 1.88671 v -1.07812 c 0,-1.42189 0.4082,-2.52539 1.22461,-3.31055 0.81641,-0.78516 1.95898,-1.17773 3.42774,-1.17773 0.46875,0 1.04296,0.0781 1.72265,0.23437 l -0.0351,2.625 c -0.28125,-0.0703 -0.625,-0.10547 -1.03125,-0.10547 -1.27345,0 -1.91016,0.59765 -1.91016,1.79297 v 1.01953 h 2.51953 v 2.48438 h -2.51953 V 628 Z m 7.14844,-6.45703 c 0,-1.25782 0.24219,-2.3789 0.72656,-3.36328 0.48438,-0.98438 1.18164,-1.74609 2.0918,-2.28516 0.91016,-0.53906 1.96679,-0.80859 3.16992,-0.80859 1.71095,0 3.10742,0.52343 4.18946,1.57031 1.08203,1.04688 1.68554,2.46874 1.81054,4.26562 l 0.0234,0.86719 c 0,1.94532 -0.54296,3.50586 -1.62891,4.68164 -1.08594,1.17579 -2.54296,1.76367 -4.37109,1.76367 -1.82813,0 -3.2871,-0.58593 -4.37695,-1.75781 -1.08985,-1.17188 -1.63477,-2.76561 -1.63477,-4.78125 z m 3.38672,0.24609 c 0,1.20313 0.22656,2.12305 0.67969,2.75977 0.45313,0.63672 1.10156,0.95508 1.94531,0.95508 0.82032,0 1.46094,-0.31445 1.92188,-0.94336 0.46094,-0.62891 0.6914,-1.63476 0.6914,-3.01758 0,-1.17969 -0.23046,-2.09375 -0.6914,-2.74219 -0.46094,-0.64844 -1.10937,-0.97266 -1.94532,-0.97266 -0.82813,0 -1.46874,0.32227 -1.92187,0.9668 -0.45313,0.64454 -0.67969,1.64257 -0.67969,2.99414 z m 10.18359,-0.24609 c 0,-1.25782 0.24219,-2.3789 0.72657,-3.36328 0.48437,-0.98438 1.18163,-1.74609 2.09179,-2.28516 0.91016,-0.53906 1.96679,-0.80859 3.16993,-0.80859 1.71094,0 3.10741,0.52343 4.18945,1.57031 1.08204,1.04688 1.68555,2.46874 1.81055,4.26562 l 0.0234,0.86719 c 0,1.94532 -0.54296,3.50586 -1.6289,4.68164 -1.08594,1.17579 -2.54296,1.76367 -4.3711,1.76367 -1.82813,0 -3.2871,-0.58593 -4.37695,-1.75781 -1.08985,-1.17188 -1.63477,-2.76561 -1.63477,-4.78125 z m 3.38672,0.24609 c 0,1.20313 0.22656,2.12305 0.67969,2.75977 0.45313,0.63672 1.10156,0.95508 1.94531,0.95508 0.82032,0 1.46094,-0.31445 1.92188,-0.94336 0.46094,-0.62891 0.6914,-1.63476 0.6914,-3.01758 0,-1.17969 -0.23046,-2.09375 -0.6914,-2.74219 -0.46094,-0.64844 -1.10937,-0.97266 -1.94531,-0.97266 -0.82813,0 -1.46875,0.32227 -1.92188,0.9668 -0.45313,0.64454 -0.67969,1.64257 -0.67969,2.99414 z m 14.76563,-9.58594 v 3.11719 h 2.16797 v 2.48438 h -2.16797 v 6.32812 c 0,0.46876 0.0898,0.80469 0.26953,1.00781 0.17969,0.20313 0.52343,0.30469 1.03125,0.30469 0.375,0 0.70703,-0.0273 0.99609,-0.082 v 2.56641 c -0.66406,0.20312 -1.34765,0.30468 -2.05078,0.30468 -2.37501,0 -3.58594,-1.1992 -3.63281,-3.59765 v -6.83203 h -1.85156 v -2.48438 h 1.85156 v -3.11719 z m 9.89062,16.03125 c -1.85938,0 -3.37304,-0.5703 -4.54101,-1.71093 -1.16798,-1.14063 -1.75196,-2.66015 -1.75196,-4.5586 v -0.32812 c 0,-1.27344 0.2461,-2.41211 0.73829,-3.41602 0.49219,-1.00391 1.18944,-1.77734 2.09179,-2.32031 0.90235,-0.54297 1.93164,-0.81445 3.08789,-0.81445 1.73439,0 3.09961,0.54687 4.09571,1.64062 0.9961,1.09376 1.49414,2.64452 1.49414,4.65235 v 1.38281 h -8.07422 c 0.10937,0.82813 0.43945,1.49218 0.99023,1.99219 0.55079,0.5 1.24805,0.75 2.0918,0.75 1.30469,0 2.32421,-0.47266 3.05859,-1.41797 l 1.66407,1.86328 c -0.50782,0.71875 -1.19531,1.27929 -2.0625,1.68164 -0.8672,0.40234 -1.82812,0.60351 -2.88282,0.60351 z m -0.38672,-10.40625 c -0.67187,0 -1.21679,0.22656 -1.63476,0.67969 -0.41797,0.45313 -0.68555,1.10156 -0.80274,1.94531 h 4.71094 v -0.26953 c -0.0156,-0.75 -0.21875,-1.33007 -0.60937,-1.74023 -0.39063,-0.41016 -0.94531,-0.61524 -1.66407,-0.61524 z m 14.64844,0.66797 c -0.46094,-0.0625 -0.86718,-0.0937 -1.21875,-0.0937 -1.28125,0 -2.12109,0.43359 -2.51953,1.30078 V 628 h -3.38672 v -12.67969 h 3.19922 l 0.0937,1.51172 c 0.67969,-1.16407 1.62109,-1.74609 2.82422,-1.74609 0.375,0 0.72656,0.0508 1.05469,0.15234 z m 8.54297,2.22657 -6.80859,-2.37891 v -3.25781 l 10.20703,4.27734 v 2.75391 l -10.20703,4.28906 v -3.26953 z"
           id="&lt;ea-footer&gt;-&lt;/ea-foo"
           inkscape:connector-curvature="0"
           style="fill:#4b4b4b" />
      </g>
    </g>
  </g>
</svg>
